# xmcd
#
# Track frame offsets:
#	150
#	5057
#	9965
#	12690
#	15367
#	20262
#	25152
#	30075
#	34907
#	39910
#	44852
#	47510
#	50205
#	55157
#	60147
#	62967
#	65750
#	68427
#	71087
#	76032
#	80947
#	85905
#	90692
#	95617
#	100527
#	103160
#	105810
#	110760
#	115685
#	120657
#	125655
#	130790
#	135700
#	138567
#	141177
#	145977
#	148607
#	153555
#	156252
#	161252
#	163980
#	168942
#	173875
#	176572
#	179287
#	184250
#	189177
#	191877
#	194557
#	199472
#	204422
#	207100
#	209767
#	214677
#	219562
#	224422
#	229302
#	231952
#	234632
#	239447
#	244392
#
# Disc length: 3319 seconds
#
# Revision: 0
# Processed by: cddbd v1.5.1PL0 Copyright (c) Steve Scherf et al.
# Submitted via: audiograbber 1.82.00
#
DISCID=820cf53d
DTITLE=TM Century - MegaMusic - 503 - Country
DYEAR=1900
DGENRE=
TTITLE0=8254-Somethin' Pleasing - Full Mix
TTITLE1=8254-Somethin' Pleasing - Rhythm Mix
TTITLE2=8254-Somethin' Pleasing - Full Mix-Edit
TTITLE3=8254-Somethin' Pleasing - Rhythm Mix-Edit
TTITLE4=8255-Easy - Full Mix
TTITLE5=8255-Easy - Rhythm Mix
TTITLE6=8256-Simple - Full Mix
TTITLE7=8256-Simple - Rhythm Mix
TTITLE8=8257-Up and Lively - Full Mix
TTITLE9=8257-Up and Lively - Rhythm Mix
TTITLE10=8257-Up and Lively - Full Mix-Edit
TTITLE11=8257-Up and Lively - Rhythm Mix-Edit
TTITLE12=8258-Go For It - Full Mix
TTITLE13=8258-Go For It - Rhythm Mix
TTITLE14=8258-Go For It - Full Mix-Edit
TTITLE15=8258-Go For It - Rhythm Mix-Edit
TTITLE16=8259-Went For It - Full Mix
TTITLE17=8259-Went For It - Rhythm Mix
TTITLE18=8260-One Day At A Time - Full Mix
TTITLE19=8260-One Day At A Time - Rhythm Mix
TTITLE20=8261-Slow But Sure - Full Mix
TTITLE21=8261-Slow But Sure - Rhythm Mix
TTITLE22=8262-Humorous Hoedown - Full Mix
TTITLE23=8262-Humorous Hoedown - Rhythm Mix
TTITLE24=8262-Humorous Hoedown - Full Mix-Edit
TTITLE25=8262-Humorous Hoedown - Rhythm Mix-Edit
TTITLE26=8263-Not Now, I'm Busy - Full Mix
TTITLE27=8263-Not Now, I'm Busy - Rhythm Mix
TTITLE28=8264-Floyd Cramer Style - Full Mix
TTITLE29=8264-Floyd Cramer Style - Rhythm Mix
TTITLE30=8265-Orchestrated - Full Mix
TTITLE31=8265-Orchestrated - Rhythm Mix
TTITLE32=8265-Orchestrated - Full Mix-Edit
TTITLE33=8265-Orchestrated - Rhythm Mix-Edit
TTITLE34=8266-Classy Clop - Full Mix
TTITLE35=8266-Classy Clop - Full Mix-Edit
TTITLE36=8267-Level and Straight - Full Mix
TTITLE37=8267-Level and Straight - Full Mix-Edit
TTITLE38=8268-County Line - Full Mix
TTITLE39=8268-County Line - Full Mix-Edit
TTITLE40=8269-Bam Dance - Full Mix
TTITLE41=8269-Bam Dance - Rhythm Mix
TTITLE42=8269-Bam Dance - Full Mix-Edit
TTITLE43=8269-Bam Dance - Rhythm Mix-Edit
TTITLE44=8270-Bluegrass Beat - Full Mix
TTITLE45=8270-Bluegrass Beat - Rhythm Mix
TTITLE46=8270-Bluegrass Beat - Full Mix-Edit
TTITLE47=8270-Bluegrass Beat - Rhythm Mix-Edit
TTITLE48=8271-Traveling - Full Mix
TTITLE49=8271-Traveling - Rhythm Mix
TTITLE50=8271-Traveling - Full Mix-Edit
TTITLE51=8271-Traveling - Rhythm Mix-Edit
TTITLE52=8272-Brassy Basics - Full Mix
TTITLE53=8272-Brassy Basics - Rhythm Mix
TTITLE54=8273-Sensitive - Full Mix
TTITLE55=8273-Sensitive - Rhythm Mix
TTITLE56=8273-Sensitive - Full Mix-Edit
TTITLE57=8273-Sensitive - Rhythm Mix-Edit
TTITLE58=8274-Casual - Full Mix
TTITLE59=8275-Glassy Lake - Full Mix
TTITLE60=8275-Glassy Lake - Rhythm Mix
EXTD=
EXTT0=
EXTT1=
EXTT2=
EXTT3=
EXTT4=
EXTT5=
EXTT6=
EXTT7=
EXTT8=
EXTT9=
EXTT10=
EXTT11=
EXTT12=
EXTT13=
EXTT14=
EXTT15=
EXTT16=
EXTT17=
EXTT18=
EXTT19=
EXTT20=
EXTT21=
EXTT22=
EXTT23=
EXTT24=
EXTT25=
EXTT26=
EXTT27=
EXTT28=
EXTT29=
EXTT30=
EXTT31=
EXTT32=
EXTT33=
EXTT34=
EXTT35=
EXTT36=
EXTT37=
EXTT38=
EXTT39=
EXTT40=
EXTT41=
EXTT42=
EXTT43=
EXTT44=
EXTT45=
EXTT46=
EXTT47=
EXTT48=
EXTT49=
EXTT50=
EXTT51=
EXTT52=
EXTT53=
EXTT54=
EXTT55=
EXTT56=
EXTT57=
EXTT58=
EXTT59=
EXTT60=
PLAYORDER=
